<mxfile host="app.diagrams.net" modified="2023-09-26T08:36:36.328Z" agent="Mozilla/5.0 (X11; Ubuntu; Linux x86_64; rv:109.0) Gecko/20100101 Firefox/117.0" etag="dphm1OKn477oc7r8Q71B" version="21.8.2" type="github">
  <diagram name="Page-1" id="3LfvS937DJtHsgG3JjyU">
    <mxGraphModel dx="1434" dy="942" grid="1" gridSize="10" guides="1" tooltips="1" connect="1" arrows="1" fold="1" page="1" pageScale="1" pageWidth="1100" pageHeight="850" math="0" shadow="0">
      <root>
        <mxCell id="0" />
        <mxCell id="1" parent="0" />
        <mxCell id="bSt5jZ9sm7MlLvyBAsHf-84" value="Модули управления гибридного частного облака" style="rounded=0;whiteSpace=wrap;html=1;verticalAlign=middle;fillColor=#d5e8d4;strokeColor=#82b366;" parent="1" vertex="1">
          <mxGeometry x="830" y="320" width="170" height="100" as="geometry" />
        </mxCell>
        <mxCell id="bSt5jZ9sm7MlLvyBAsHf-48" value="&lt;div style=&quot;font-size: 25px;&quot;&gt;Частное облако&lt;/div&gt;" style="rounded=0;whiteSpace=wrap;html=1;rotation=0;verticalAlign=top;horizontal=1;fillColor=#dae8fc;strokeColor=#6c8ebf;fontSize=25;fontStyle=1" parent="1" vertex="1">
          <mxGeometry x="20" y="10" width="760" height="590" as="geometry" />
        </mxCell>
        <mxCell id="bSt5jZ9sm7MlLvyBAsHf-82" value="" style="rounded=0;whiteSpace=wrap;html=1;" parent="1" vertex="1">
          <mxGeometry x="180" y="800" width="580" height="30" as="geometry" />
        </mxCell>
        <mxCell id="bSt5jZ9sm7MlLvyBAsHf-3" value="Открытый контур" style="rounded=0;whiteSpace=wrap;html=1;" parent="1" vertex="1">
          <mxGeometry x="180" y="610" width="170" height="30" as="geometry" />
        </mxCell>
        <mxCell id="bSt5jZ9sm7MlLvyBAsHf-10" value="Закрытый контур" style="rounded=0;whiteSpace=wrap;html=1;" parent="1" vertex="1">
          <mxGeometry x="350" y="610" width="180" height="30" as="geometry" />
        </mxCell>
        <mxCell id="bSt5jZ9sm7MlLvyBAsHf-15" value="Специализированные&amp;nbsp; контуры" style="rounded=0;whiteSpace=wrap;html=1;" parent="1" vertex="1">
          <mxGeometry x="530" y="610" width="190" height="30" as="geometry" />
        </mxCell>
        <mxCell id="bSt5jZ9sm7MlLvyBAsHf-16" value="Модули управления компонентами частного облака" style="rounded=0;whiteSpace=wrap;html=1;verticalAlign=middle;fillColor=#d5e8d4;strokeColor=#82b366;" parent="1" vertex="1">
          <mxGeometry x="60" y="320" width="637.5" height="100" as="geometry" />
        </mxCell>
        <mxCell id="bSt5jZ9sm7MlLvyBAsHf-86" style="edgeStyle=orthogonalEdgeStyle;rounded=0;orthogonalLoop=1;jettySize=auto;html=1;" parent="1" source="bSt5jZ9sm7MlLvyBAsHf-17" target="bSt5jZ9sm7MlLvyBAsHf-65" edge="1">
          <mxGeometry relative="1" as="geometry" />
        </mxCell>
        <mxCell id="bSt5jZ9sm7MlLvyBAsHf-17" value="Локальный контроллер облака" style="rounded=0;whiteSpace=wrap;html=1;fillColor=#d5e8d4;strokeColor=#82b366;" parent="1" vertex="1">
          <mxGeometry x="405" y="400" width="70" height="50" as="geometry" />
        </mxCell>
        <mxCell id="bSt5jZ9sm7MlLvyBAsHf-30" style="edgeStyle=orthogonalEdgeStyle;rounded=0;orthogonalLoop=1;jettySize=auto;html=1;" parent="1" source="bSt5jZ9sm7MlLvyBAsHf-20" target="bSt5jZ9sm7MlLvyBAsHf-23" edge="1">
          <mxGeometry relative="1" as="geometry" />
        </mxCell>
        <mxCell id="bSt5jZ9sm7MlLvyBAsHf-20" value="Вычислительные мощности" style="rounded=0;whiteSpace=wrap;html=1;" parent="1" vertex="1">
          <mxGeometry x="180" y="730" width="120" height="60" as="geometry" />
        </mxCell>
        <mxCell id="bSt5jZ9sm7MlLvyBAsHf-31" style="edgeStyle=orthogonalEdgeStyle;rounded=0;orthogonalLoop=1;jettySize=auto;html=1;" parent="1" source="bSt5jZ9sm7MlLvyBAsHf-21" target="bSt5jZ9sm7MlLvyBAsHf-23" edge="1">
          <mxGeometry relative="1" as="geometry" />
        </mxCell>
        <mxCell id="bSt5jZ9sm7MlLvyBAsHf-21" value="Системы хранения" style="rounded=0;whiteSpace=wrap;html=1;" parent="1" vertex="1">
          <mxGeometry x="325" y="730" width="120" height="60" as="geometry" />
        </mxCell>
        <mxCell id="bSt5jZ9sm7MlLvyBAsHf-32" style="edgeStyle=orthogonalEdgeStyle;rounded=0;orthogonalLoop=1;jettySize=auto;html=1;entryX=0.5;entryY=1;entryDx=0;entryDy=0;" parent="1" source="bSt5jZ9sm7MlLvyBAsHf-22" target="bSt5jZ9sm7MlLvyBAsHf-23" edge="1">
          <mxGeometry relative="1" as="geometry" />
        </mxCell>
        <mxCell id="bSt5jZ9sm7MlLvyBAsHf-22" value="Сетевая инфраструктура" style="rounded=0;whiteSpace=wrap;html=1;" parent="1" vertex="1">
          <mxGeometry x="480" y="730" width="120" height="60" as="geometry" />
        </mxCell>
        <mxCell id="bSt5jZ9sm7MlLvyBAsHf-23" value="Деление на сегменты и контуры безопасности" style="rounded=0;whiteSpace=wrap;html=1;" parent="1" vertex="1">
          <mxGeometry x="180" y="640" width="580" height="30" as="geometry" />
        </mxCell>
        <mxCell id="bSt5jZ9sm7MlLvyBAsHf-24" value="Системы виртуализации" style="rounded=0;whiteSpace=wrap;html=1;fillColor=#fad9d5;strokeColor=#ae4132;" parent="1" vertex="1">
          <mxGeometry x="190" y="560" width="150" height="30" as="geometry" />
        </mxCell>
        <mxCell id="bSt5jZ9sm7MlLvyBAsHf-25" value="Обеспечение ИБ" style="rounded=0;whiteSpace=wrap;html=1;fillColor=#ffcccc;strokeColor=#36393d;" parent="1" vertex="1">
          <mxGeometry x="190" y="500" width="150" height="30" as="geometry" />
        </mxCell>
        <mxCell id="bSt5jZ9sm7MlLvyBAsHf-26" value="Инфраструктурное ПО" style="rounded=0;whiteSpace=wrap;html=1;fillColor=#fad9d5;strokeColor=#ae4132;" parent="1" vertex="1">
          <mxGeometry x="545" y="530" width="160" height="30" as="geometry" />
        </mxCell>
        <mxCell id="bSt5jZ9sm7MlLvyBAsHf-28" value="Системы виртуализации" style="rounded=0;whiteSpace=wrap;html=1;fillColor=#fad9d5;strokeColor=#ae4132;" parent="1" vertex="1">
          <mxGeometry x="360" y="560" width="160" height="30" as="geometry" />
        </mxCell>
        <mxCell id="bSt5jZ9sm7MlLvyBAsHf-29" value="Обеспечение ИБ" style="rounded=0;whiteSpace=wrap;html=1;fillColor=#ffcccc;strokeColor=#36393d;" parent="1" vertex="1">
          <mxGeometry x="360" y="500" width="160" height="30" as="geometry" />
        </mxCell>
        <mxCell id="bSt5jZ9sm7MlLvyBAsHf-34" value="Системы виртуализации" style="rounded=0;whiteSpace=wrap;html=1;fillColor=#fad9d5;strokeColor=#ae4132;" parent="1" vertex="1">
          <mxGeometry x="545" y="560" width="160" height="30" as="geometry" />
        </mxCell>
        <mxCell id="bSt5jZ9sm7MlLvyBAsHf-35" value="Обеспечение ИБ" style="rounded=0;whiteSpace=wrap;html=1;fillColor=#ffcccc;strokeColor=#36393d;" parent="1" vertex="1">
          <mxGeometry x="545" y="500" width="160" height="30" as="geometry" />
        </mxCell>
        <mxCell id="bSt5jZ9sm7MlLvyBAsHf-36" value="Инфраструктурное ПО" style="rounded=0;whiteSpace=wrap;html=1;fillColor=#fad9d5;strokeColor=#ae4132;" parent="1" vertex="1">
          <mxGeometry x="190" y="530" width="150" height="30" as="geometry" />
        </mxCell>
        <mxCell id="bSt5jZ9sm7MlLvyBAsHf-37" value="Инфраструктура" style="rounded=0;whiteSpace=wrap;html=1;rotation=-90;" parent="1" vertex="1">
          <mxGeometry x="5" y="695" width="230" height="60" as="geometry" />
        </mxCell>
        <mxCell id="bSt5jZ9sm7MlLvyBAsHf-38" value="Виртуализация и инфраструктурное ПО*" style="rounded=0;whiteSpace=wrap;html=1;rotation=-90;fillColor=#fad9d5;strokeColor=#ae4132;" parent="1" vertex="1">
          <mxGeometry x="65" y="505" width="110" height="60" as="geometry" />
        </mxCell>
        <mxCell id="bSt5jZ9sm7MlLvyBAsHf-40" value="Инфраструктурное ПО" style="rounded=0;whiteSpace=wrap;html=1;fillColor=#fad9d5;strokeColor=#ae4132;" parent="1" vertex="1">
          <mxGeometry x="360" y="530" width="160" height="30" as="geometry" />
        </mxCell>
        <mxCell id="bSt5jZ9sm7MlLvyBAsHf-85" style="edgeStyle=orthogonalEdgeStyle;rounded=0;orthogonalLoop=1;jettySize=auto;html=1;" parent="1" source="bSt5jZ9sm7MlLvyBAsHf-42" target="bSt5jZ9sm7MlLvyBAsHf-64" edge="1">
          <mxGeometry relative="1" as="geometry" />
        </mxCell>
        <mxCell id="bSt5jZ9sm7MlLvyBAsHf-42" value="Локальный контроллер облака" style="rounded=0;whiteSpace=wrap;html=1;fillColor=#d5e8d4;strokeColor=#82b366;" parent="1" vertex="1">
          <mxGeometry x="230" y="400" width="70" height="50" as="geometry" />
        </mxCell>
        <mxCell id="bSt5jZ9sm7MlLvyBAsHf-87" style="edgeStyle=orthogonalEdgeStyle;rounded=0;orthogonalLoop=1;jettySize=auto;html=1;" parent="1" source="bSt5jZ9sm7MlLvyBAsHf-45" target="bSt5jZ9sm7MlLvyBAsHf-66" edge="1">
          <mxGeometry relative="1" as="geometry" />
        </mxCell>
        <mxCell id="bSt5jZ9sm7MlLvyBAsHf-45" value="Локальный контроллер облака" style="rounded=0;whiteSpace=wrap;html=1;fillColor=#d5e8d4;strokeColor=#82b366;" parent="1" vertex="1">
          <mxGeometry x="590" y="400" width="70" height="50" as="geometry" />
        </mxCell>
        <mxCell id="bSt5jZ9sm7MlLvyBAsHf-46" value="..." style="text;html=1;strokeColor=none;fillColor=none;align=center;verticalAlign=middle;whiteSpace=wrap;rounded=0;" parent="1" vertex="1">
          <mxGeometry x="710" y="610" width="60" height="30" as="geometry" />
        </mxCell>
        <mxCell id="bSt5jZ9sm7MlLvyBAsHf-47" value="Собственные ЦОД" style="rounded=0;whiteSpace=wrap;html=1;fontSize=16;fontStyle=1" parent="1" vertex="1">
          <mxGeometry x="170" y="810" width="580" height="30" as="geometry" />
        </mxCell>
        <mxCell id="bSt5jZ9sm7MlLvyBAsHf-49" value="&lt;div&gt;&lt;font style=&quot;font-size: 16px;&quot;&gt;&lt;b&gt;Внешняя / арендованная инфраструктура&lt;/b&gt;&lt;/font&gt;&lt;/div&gt;&lt;br&gt;Примеры провайдеров:&lt;br&gt;Росатом, Ростелеком, VK, Selectel, Сберклауд..." style="rounded=0;whiteSpace=wrap;html=1;" parent="1" vertex="1">
          <mxGeometry x="830" y="720" width="250" height="110" as="geometry" />
        </mxCell>
        <mxCell id="bSt5jZ9sm7MlLvyBAsHf-50" value="Колокейшн" style="rounded=0;whiteSpace=wrap;html=1;horizontal=0;" parent="1" vertex="1">
          <mxGeometry x="830" y="610" width="100" height="110" as="geometry" />
        </mxCell>
        <mxCell id="GXTsXyMNsPDJ74KIg2CK-1" value="" style="edgeStyle=orthogonalEdgeStyle;rounded=0;orthogonalLoop=1;jettySize=auto;html=1;" edge="1" parent="1" source="bSt5jZ9sm7MlLvyBAsHf-51" target="bSt5jZ9sm7MlLvyBAsHf-49">
          <mxGeometry relative="1" as="geometry" />
        </mxCell>
        <mxCell id="bSt5jZ9sm7MlLvyBAsHf-51" value="IaaS" style="rounded=0;whiteSpace=wrap;html=1;horizontal=0;" parent="1" vertex="1">
          <mxGeometry x="930" y="560" width="50" height="160" as="geometry" />
        </mxCell>
        <mxCell id="bSt5jZ9sm7MlLvyBAsHf-52" value="IaaS+" style="rounded=0;whiteSpace=wrap;html=1;horizontal=0;" parent="1" vertex="1">
          <mxGeometry x="980" y="490" width="50" height="230" as="geometry" />
        </mxCell>
        <mxCell id="bSt5jZ9sm7MlLvyBAsHf-53" value="PaaS" style="rounded=0;whiteSpace=wrap;html=1;horizontal=0;" parent="1" vertex="1">
          <mxGeometry x="1030" y="40" width="50" height="680" as="geometry" />
        </mxCell>
        <mxCell id="bSt5jZ9sm7MlLvyBAsHf-55" value="Общие и/или разделяемые&lt;br&gt; Базовые сервисы" style="rounded=0;whiteSpace=wrap;html=1;rotation=-90;fillColor=#cce5ff;strokeColor=#36393d;" parent="1" vertex="1">
          <mxGeometry x="64.37" y="175.63" width="111.25" height="60" as="geometry" />
        </mxCell>
        <mxCell id="bSt5jZ9sm7MlLvyBAsHf-56" value="СУБД" style="rounded=0;whiteSpace=wrap;html=1;rotation=0;fillColor=#cce5ff;strokeColor=#36393d;" parent="1" vertex="1">
          <mxGeometry x="193.75" y="215" width="142.5" height="40" as="geometry" />
        </mxCell>
        <mxCell id="bSt5jZ9sm7MlLvyBAsHf-57" value="Облачные системы хранения" style="rounded=0;whiteSpace=wrap;html=1;rotation=0;fillColor=#cce5ff;strokeColor=#36393d;" parent="1" vertex="1">
          <mxGeometry x="505" y="50" width="142.5" height="40" as="geometry" />
        </mxCell>
        <mxCell id="bSt5jZ9sm7MlLvyBAsHf-58" value="Распределенные блочные устройства" style="rounded=0;whiteSpace=wrap;html=1;rotation=0;fillColor=#cce5ff;strokeColor=#36393d;" parent="1" vertex="1">
          <mxGeometry x="350" y="215" width="142.5" height="40" as="geometry" />
        </mxCell>
        <mxCell id="bSt5jZ9sm7MlLvyBAsHf-59" value="Клиентский прикладной мониторинг" style="rounded=0;whiteSpace=wrap;html=1;rotation=0;fillColor=#cce5ff;strokeColor=#36393d;" parent="1" vertex="1">
          <mxGeometry x="193.75" y="170" width="142.5" height="40" as="geometry" />
        </mxCell>
        <mxCell id="bSt5jZ9sm7MlLvyBAsHf-60" value="DevOps конвейеры" style="rounded=0;whiteSpace=wrap;html=1;rotation=0;fillColor=#cce5ff;strokeColor=#36393d;" parent="1" vertex="1">
          <mxGeometry x="190" y="100" width="142.5" height="40" as="geometry" />
        </mxCell>
        <mxCell id="bSt5jZ9sm7MlLvyBAsHf-61" value="Клиентские средства обеспечения ИБ" style="rounded=0;whiteSpace=wrap;html=1;rotation=0;fillColor=#cce5ff;strokeColor=#36393d;" parent="1" vertex="1">
          <mxGeometry x="350" y="170" width="142.5" height="40" as="geometry" />
        </mxCell>
        <mxCell id="bSt5jZ9sm7MlLvyBAsHf-63" style="edgeStyle=orthogonalEdgeStyle;rounded=0;orthogonalLoop=1;jettySize=auto;html=1;entryX=0.5;entryY=1;entryDx=0;entryDy=0;" parent="1" source="bSt5jZ9sm7MlLvyBAsHf-62" target="bSt5jZ9sm7MlLvyBAsHf-23" edge="1">
          <mxGeometry relative="1" as="geometry" />
        </mxCell>
        <mxCell id="bSt5jZ9sm7MlLvyBAsHf-62" value="Средства обеспечения ИБ" style="rounded=0;whiteSpace=wrap;html=1;" parent="1" vertex="1">
          <mxGeometry x="620" y="730" width="120" height="60" as="geometry" />
        </mxCell>
        <mxCell id="bSt5jZ9sm7MlLvyBAsHf-64" value="Системы контейнеризации" style="rounded=0;whiteSpace=wrap;html=1;fillColor=#fad9d5;strokeColor=#ae4132;" parent="1" vertex="1">
          <mxGeometry x="190" y="470" width="150" height="30" as="geometry" />
        </mxCell>
        <mxCell id="bSt5jZ9sm7MlLvyBAsHf-65" value="Системы контейнеризации" style="rounded=0;whiteSpace=wrap;html=1;fillColor=#fad9d5;strokeColor=#ae4132;" parent="1" vertex="1">
          <mxGeometry x="360" y="470" width="160" height="30" as="geometry" />
        </mxCell>
        <mxCell id="bSt5jZ9sm7MlLvyBAsHf-66" value="Системы контейнеризации" style="rounded=0;whiteSpace=wrap;html=1;fillColor=#fad9d5;strokeColor=#ae4132;" parent="1" vertex="1">
          <mxGeometry x="545" y="470" width="160" height="30" as="geometry" />
        </mxCell>
        <mxCell id="bSt5jZ9sm7MlLvyBAsHf-67" value="Брокеры сообщений" style="rounded=0;whiteSpace=wrap;html=1;rotation=0;fillColor=#cce5ff;strokeColor=#36393d;" parent="1" vertex="1">
          <mxGeometry x="190" y="50" width="142.5" height="40" as="geometry" />
        </mxCell>
        <mxCell id="bSt5jZ9sm7MlLvyBAsHf-68" value="Клиентское резервное копирование" style="rounded=0;whiteSpace=wrap;html=1;rotation=0;fillColor=#cce5ff;strokeColor=#36393d;" parent="1" vertex="1">
          <mxGeometry x="510" y="170" width="142.5" height="40" as="geometry" />
        </mxCell>
        <mxCell id="bSt5jZ9sm7MlLvyBAsHf-69" value="SSO" style="rounded=0;whiteSpace=wrap;html=1;rotation=0;fillColor=#cce5ff;strokeColor=#36393d;" parent="1" vertex="1">
          <mxGeometry x="350" y="50" width="142.5" height="40" as="geometry" />
        </mxCell>
        <mxCell id="bSt5jZ9sm7MlLvyBAsHf-70" value="Общие и/или разделяемые&lt;br&gt;Прикладные сервисы" style="rounded=0;whiteSpace=wrap;html=1;rotation=-90;fillColor=#cce5ff;strokeColor=#36393d;" parent="1" vertex="1">
          <mxGeometry x="70" y="60" width="101.25" height="60" as="geometry" />
        </mxCell>
        <mxCell id="bSt5jZ9sm7MlLvyBAsHf-71" value="..." style="text;html=1;strokeColor=#36393d;fillColor=#cce5ff;align=center;verticalAlign=middle;whiteSpace=wrap;rounded=0;" parent="1" vertex="1">
          <mxGeometry x="510" y="220" width="60" height="30" as="geometry" />
        </mxCell>
        <mxCell id="bSt5jZ9sm7MlLvyBAsHf-72" value="Контроллеры сервисов" style="rounded=0;whiteSpace=wrap;html=1;fillColor=#d5e8d4;strokeColor=#82b366;" parent="1" vertex="1">
          <mxGeometry x="363.12" y="290" width="129.38" height="50" as="geometry" />
        </mxCell>
        <mxCell id="bSt5jZ9sm7MlLvyBAsHf-73" value="Клиентская панель управления сервисами" style="rounded=0;whiteSpace=wrap;html=1;fillColor=#d5e8d4;strokeColor=#82b366;" parent="1" vertex="1">
          <mxGeometry x="82.19" y="290" width="129.38" height="50" as="geometry" />
        </mxCell>
        <mxCell id="bSt5jZ9sm7MlLvyBAsHf-74" value="Оркестратор" style="rounded=0;whiteSpace=wrap;html=1;fillColor=#d5e8d4;strokeColor=#82b366;" parent="1" vertex="1">
          <mxGeometry x="505" y="290" width="86.88" height="50" as="geometry" />
        </mxCell>
        <mxCell id="bSt5jZ9sm7MlLvyBAsHf-75" value="Биллинг" style="rounded=0;whiteSpace=wrap;html=1;fillColor=#d5e8d4;strokeColor=#82b366;" parent="1" vertex="1">
          <mxGeometry x="601.88" y="290" width="86.88" height="50" as="geometry" />
        </mxCell>
        <mxCell id="bSt5jZ9sm7MlLvyBAsHf-106" style="edgeStyle=orthogonalEdgeStyle;rounded=0;orthogonalLoop=1;jettySize=auto;html=1;" parent="1" source="bSt5jZ9sm7MlLvyBAsHf-76" target="bSt5jZ9sm7MlLvyBAsHf-50" edge="1">
          <mxGeometry relative="1" as="geometry" />
        </mxCell>
        <mxCell id="bSt5jZ9sm7MlLvyBAsHf-107" style="edgeStyle=orthogonalEdgeStyle;rounded=0;orthogonalLoop=1;jettySize=auto;html=1;entryX=0.5;entryY=0;entryDx=0;entryDy=0;" parent="1" source="bSt5jZ9sm7MlLvyBAsHf-76" target="bSt5jZ9sm7MlLvyBAsHf-51" edge="1">
          <mxGeometry relative="1" as="geometry" />
        </mxCell>
        <mxCell id="bSt5jZ9sm7MlLvyBAsHf-108" style="edgeStyle=orthogonalEdgeStyle;rounded=0;orthogonalLoop=1;jettySize=auto;html=1;" parent="1" source="bSt5jZ9sm7MlLvyBAsHf-76" target="bSt5jZ9sm7MlLvyBAsHf-52" edge="1">
          <mxGeometry relative="1" as="geometry" />
        </mxCell>
        <mxCell id="bSt5jZ9sm7MlLvyBAsHf-76" value="Локальный контроллер облака" style="rounded=0;whiteSpace=wrap;html=1;fillColor=#d5e8d4;strokeColor=#82b366;" parent="1" vertex="1">
          <mxGeometry x="845" y="400" width="70" height="50" as="geometry" />
        </mxCell>
        <mxCell id="bSt5jZ9sm7MlLvyBAsHf-79" value="Инфраструктурная часть облака (IaaS/IaaS+)" style="rounded=0;whiteSpace=wrap;html=1;rotation=-90;fillColor=#f8cecc;strokeColor=#b85450;" parent="1" vertex="1">
          <mxGeometry x="-68.43" y="460" width="240" height="30" as="geometry" />
        </mxCell>
        <mxCell id="bSt5jZ9sm7MlLvyBAsHf-80" value="Прикладная часть облака (PaaS)" style="rounded=0;whiteSpace=wrap;html=1;rotation=-90;fillColor=#fff2cc;strokeColor=#d6b656;" parent="1" vertex="1">
          <mxGeometry x="-108.42999999999999" y="180" width="320" height="30" as="geometry" />
        </mxCell>
        <mxCell id="bSt5jZ9sm7MlLvyBAsHf-90" value="Оркестратор" style="rounded=0;whiteSpace=wrap;html=1;fillColor=#d5e8d4;strokeColor=#82b366;" parent="1" vertex="1">
          <mxGeometry x="573.12" y="345" width="86.88" height="50" as="geometry" />
        </mxCell>
        <mxCell id="bSt5jZ9sm7MlLvyBAsHf-91" value="Портал администрирования" style="rounded=0;whiteSpace=wrap;html=1;fillColor=#d5e8d4;strokeColor=#82b366;" parent="1" vertex="1">
          <mxGeometry x="220.62" y="290" width="129.38" height="50" as="geometry" />
        </mxCell>
        <mxCell id="bSt5jZ9sm7MlLvyBAsHf-111" style="edgeStyle=orthogonalEdgeStyle;rounded=0;orthogonalLoop=1;jettySize=auto;html=1;exitX=0.5;exitY=0;exitDx=0;exitDy=0;entryX=0;entryY=0.25;entryDx=0;entryDy=0;" parent="1" source="bSt5jZ9sm7MlLvyBAsHf-100" target="bSt5jZ9sm7MlLvyBAsHf-53" edge="1">
          <mxGeometry relative="1" as="geometry">
            <Array as="points">
              <mxPoint x="915" y="245" />
            </Array>
          </mxGeometry>
        </mxCell>
        <mxCell id="bSt5jZ9sm7MlLvyBAsHf-100" value="Контроллеры сервисов" style="rounded=0;whiteSpace=wrap;html=1;fillColor=#d5e8d4;strokeColor=#82b366;" parent="1" vertex="1">
          <mxGeometry x="850.62" y="290" width="129.38" height="50" as="geometry" />
        </mxCell>
        <mxCell id="bSt5jZ9sm7MlLvyBAsHf-102" value="" style="shape=flexArrow;endArrow=classic;html=1;rounded=0;entryX=1;entryY=0.5;entryDx=0;entryDy=0;exitX=0;exitY=0.5;exitDx=0;exitDy=0;fillColor=#d5e8d4;strokeColor=#82b366;" parent="1" source="bSt5jZ9sm7MlLvyBAsHf-84" target="bSt5jZ9sm7MlLvyBAsHf-16" edge="1">
          <mxGeometry width="50" height="50" relative="1" as="geometry">
            <mxPoint x="820" y="240" as="sourcePoint" />
            <mxPoint x="870" y="190" as="targetPoint" />
          </mxGeometry>
        </mxCell>
        <mxCell id="bSt5jZ9sm7MlLvyBAsHf-103" value="Системы поиска и индексации" style="rounded=0;whiteSpace=wrap;html=1;rotation=0;fillColor=#cce5ff;strokeColor=#36393d;" parent="1" vertex="1">
          <mxGeometry x="350" y="100" width="142.5" height="40" as="geometry" />
        </mxCell>
        <mxCell id="bSt5jZ9sm7MlLvyBAsHf-105" value="..." style="text;html=1;strokeColor=#36393d;fillColor=#cce5ff;align=center;verticalAlign=middle;whiteSpace=wrap;rounded=0;" parent="1" vertex="1">
          <mxGeometry x="510" y="110" width="60" height="30" as="geometry" />
        </mxCell>
      </root>
    </mxGraphModel>
  </diagram>
</mxfile>
